# xmcd
#
# Track frame offsets:
# 150
# 26656
# 53105
# 80342
# 108422
# 138827
# 162048
# 192807
# 221493
# 253195
#
# Disc length: 3721 seconds
#
# Revision: 0
# Processed by: cddbd v1.4PL0 Copyright (c) Steve Scherf et al.
# Submitted via: Audion 3.0.2 (http://www.panic.com/audion/)
#
DISCID=800e870a
DTITLE=Salt Radio Features - Moving Out, Moving In, Moving On
DYEAR=1900
DGENRE=
TTITLE0=A Stop Along the Way - Sara Paul
TTITLE1=A Clean Sweep - John Basile
TTITLE2=Ann Meets Mr. Ellington - Kerry Seed
TTITLE3=Transmitter of Things - Geoff Gundersdorf
TTITLE4=The Contender - Kezia Parsons
TTITLE5=The Way it Looks from Here - Kerry Seed
TTITLE6=At the Toucan Hop - John Basile
TTITLE7=Baby Steps - Kezia Parsons
TTITLE8=The House on the Hill - Sara Paul
TTITLE9=Out of Date from the Start - Geoff Gundersdorf
EXTD=
EXTT0=
EXTT1=
EXTT2=
EXTT3=
EXTT4=
EXTT5=
EXTT6=
EXTT7=
EXTT8=
EXTT9=
PLAYORDER=
